<svg width="40" height="40" viewBox="0 0 40 40" fill="none" xmlns="http://www.w3.org/2000/svg">
<path d="M10.9382 4.38546H29.0618C32.6808 4.38546 35.6145 7.31924 35.6145 10.9382V29.0618C35.6145 32.6808 32.6808 35.6145 29.0618 35.6145H10.9382C7.31924 35.6145 4.38546 32.6808 4.38546 29.0618V10.9382C4.38546 7.31924 7.31924 4.38546 10.9382 4.38546Z" fill="#27282D" stroke="#909090" stroke-width="0.770916"/>
<path d="M19.9783 23.0119L21.028 21.0377L8.36895 14.3067L7.31923 16.281L19.9783 23.0119ZM22.8793 17.5558L23.929 15.5816L11.27 8.85068L10.2203 10.8249L22.8793 17.5558Z" fill="#AA83E4"/>
<path d="M16.5022 29.5251L17.3738 27.8859L18.678 28.5793C19.2682 28.8932 19.7528 29.069 20.1318 29.1068C20.5108 29.1446 20.8475 29.0115 21.1421 28.7077C21.4446 28.4082 21.7804 27.9114 22.1493 27.2174L23.848 24.0227C24.2933 23.1852 24.9628 22.6766 25.8564 22.4969C26.7543 22.3092 27.8158 22.5258 29.041 23.1465L29.1428 22.9551C27.9473 22.2785 27.1742 21.5195 26.8234 20.6782C26.4769 19.8289 26.5264 18.9855 26.9717 18.1479L28.6703 14.9532C29.0393 14.2593 29.2634 13.7031 29.3426 13.2848C29.4298 12.8707 29.3517 12.5171 29.1085 12.2241C28.8653 11.931 28.4485 11.6276 27.8582 11.3137L26.554 10.6203L27.4256 8.98108L29.0529 9.84631C30.018 10.3595 30.7162 10.8842 31.1473 11.4204C31.5827 11.9486 31.7655 12.5574 31.6957 13.2467C31.6339 13.9403 31.3421 14.7777 30.8204 15.7588L29.3953 18.439C29.0688 19.0532 28.9186 19.6435 28.9448 20.21C28.971 20.7764 29.2164 21.306 29.681 21.7985C30.1578 22.2874 30.8882 22.732 31.8724 23.1326L30.7209 25.2982C29.8385 24.7063 29.0593 24.3533 28.3832 24.2394C27.715 24.1297 27.1409 24.2184 26.6609 24.5054C26.1808 24.7925 25.7754 25.2471 25.4446 25.8693L24.0195 28.5494C23.4978 29.5306 22.9668 30.2407 22.4263 30.6798C21.8939 31.1232 21.287 31.3121 20.6056 31.2465C19.92 31.1889 19.0946 30.9035 18.1294 30.3903L16.5022 29.5251Z" fill="#DEDFDF"/>
</svg>
