<svg width="40" height="40" viewBox="0 0 40 40" fill="none" xmlns="http://www.w3.org/2000/svg">
<path d="M20 36C28.8366 36 36 28.8366 36 20C36 11.1634 28.8366 4 20 4C11.1634 4 4 11.1634 4 20C4 28.8366 11.1634 36 20 36Z" fill="url(#paint0_linear_2_2)"/>
<path fill-rule="evenodd" clip-rule="evenodd" d="M20.5666 28.4647V10.4H19.7666V28.7151C19.7553 28.6951 19.7438 28.6745 19.7322 28.6533C19.4848 28.2016 19.2106 27.5396 18.9214 26.7226C18.3446 25.0934 17.7304 22.9121 17.1666 20.7199C16.6034 18.5301 16.0929 16.3392 15.7231 14.6951C15.5382 13.8733 15.3886 13.1884 15.2852 12.7092C15.2335 12.4696 15.1934 12.2814 15.1662 12.1533L15.1354 12.007L15.1275 11.9697L15.1255 11.9603L15.1251 11.958L15.1249 11.9574C15.1249 11.9573 15.1249 11.9572 14.7333 12.039C14.3418 12.1208 14.3418 12.1208 14.3418 12.121L14.342 12.1216L14.3425 12.1241L14.3445 12.1338L14.3525 12.1717L14.3836 12.3192C14.411 12.4482 14.4513 12.6373 14.5032 12.8779C14.607 13.3591 14.7571 14.0462 14.9426 14.8707C15.3134 16.5193 15.8258 18.7187 16.3918 20.9191C16.9571 23.1171 17.5784 25.3261 18.1672 26.9896C18.3795 27.5892 18.5905 28.1264 18.7964 28.5703C18.4196 28.2623 18.0193 27.8536 17.605 27.3655C16.6205 26.2059 15.5986 24.6481 14.6694 23.0747C13.7421 21.5043 12.9152 19.9322 12.3197 18.7516C12.022 18.1616 11.7826 17.6701 11.6177 17.3264C11.5352 17.1545 11.4714 17.0197 11.4283 16.928L11.3795 16.8236L11.3672 16.7971L11.3641 16.7905L11.3634 16.789L11.3633 16.7886L11 16.9561C10.6368 17.1237 10.6368 17.1238 10.6369 17.1239L10.6371 17.1244L10.638 17.1263L10.6413 17.1335L10.6542 17.1612L10.7043 17.2682C10.7483 17.3618 10.813 17.4986 10.8964 17.6724C11.0633 18.0202 11.3051 18.5165 11.6054 19.1119C12.2057 20.302 13.0413 21.8908 13.9806 23.4815C14.8685 24.9851 15.8563 26.5026 16.8317 27.6878C16.0726 27.1265 15.309 26.4643 14.5991 25.7965C13.6757 24.9278 12.852 24.0578 12.2587 23.4043C11.9622 23.0778 11.7238 22.8059 11.5598 22.616C11.4778 22.5211 11.4144 22.4466 11.3717 22.3962L11.3234 22.3389L11.3114 22.3245L11.3085 22.321L11.3079 22.3202L11.3077 22.3201L11 22.5756C10.6923 22.8312 10.6923 22.8312 10.6924 22.8313L10.6927 22.8317L10.6936 22.8328L10.6971 22.8369L10.7103 22.8527L10.7609 22.9128C10.8053 22.9653 10.8704 23.0418 10.9543 23.1389C11.1221 23.3331 11.3649 23.61 11.6664 23.9421C12.2689 24.6056 13.1077 25.4918 14.0509 26.3792C14.9925 27.265 16.0471 28.1605 17.081 28.8371C17.2475 28.9461 17.4151 29.0505 17.5832 29.149C16.3346 28.9005 15.2503 28.5 14.3852 28.0982C13.6833 27.7723 13.1285 27.4468 12.7507 27.204C12.5619 27.0826 12.4176 26.9821 12.3215 26.9128C12.2735 26.8781 12.2376 26.8513 12.2142 26.8335L12.1887 26.8139L12.1831 26.8095L12.1822 26.8088C12.1823 26.8089 12.1824 26.809 11.9334 27.122C11.6844 27.4351 11.6845 27.4351 11.6846 27.4353L11.6849 27.4355L11.6858 27.4362L11.6885 27.4384L11.6976 27.4455L11.7304 27.4706C11.7587 27.4921 11.7998 27.5228 11.8533 27.5614C11.9601 27.6385 12.1163 27.7472 12.3181 27.8769C12.7216 28.1362 13.3084 28.4802 14.0482 28.8238C15.5263 29.5102 17.6262 30.2 20.1 30.2C22.5739 30.2 24.6737 29.5102 26.1518 28.8238C26.8916 28.4802 27.4784 28.1362 27.8819 27.8769C28.0837 27.7472 28.2399 27.6385 28.3467 27.5614C28.4001 27.5228 28.4412 27.4921 28.4696 27.4706L28.5024 27.4455L28.5115 27.4383L28.5142 27.4362L28.5151 27.4355L28.5154 27.4352C28.5155 27.4351 28.5156 27.435 28.2666 27.122C28.0176 26.809 28.0177 26.8089 28.0178 26.8088L28.0169 26.8096L28.0113 26.8139L27.9857 26.8335C27.9624 26.8513 27.9265 26.8781 27.8785 26.9128C27.7824 26.9821 27.6381 27.0826 27.4493 27.204C27.0715 27.4468 26.5167 27.7723 25.8148 28.0982C24.9497 28.5 23.8654 28.9005 22.6168 29.149C22.7849 29.0505 22.9525 28.9461 23.119 28.8371C24.1529 28.1605 25.2075 27.265 26.1491 26.3792C27.0924 25.4918 27.9312 24.6056 28.5337 23.9421C28.8351 23.61 29.078 23.3331 29.2457 23.1389C29.3296 23.0418 29.3947 22.9653 29.4391 22.9128L29.4898 22.8527L29.5029 22.8369L29.5064 22.8328L29.5073 22.8317L29.5076 22.8313C29.5077 22.8312 29.5077 22.8312 29.2 22.5756L28.8923 22.3201L28.8922 22.3202L28.8915 22.321L28.8886 22.3245L28.8766 22.3389L28.8283 22.3962C28.7856 22.4466 28.7223 22.5211 28.6403 22.616C28.4762 22.8059 28.2378 23.0778 27.9414 23.4043C27.348 24.0578 26.5243 24.9278 25.6009 25.7965C24.891 26.4643 24.1274 27.1265 23.3683 27.6878C24.3437 26.5026 25.3315 24.9851 26.2194 23.4815C27.1588 21.8908 27.9943 20.302 28.5946 19.1119C28.895 18.5165 29.1368 18.0202 29.3036 17.6724C29.3871 17.4986 29.4518 17.3618 29.4957 17.2682L29.5458 17.1612L29.5587 17.1335L29.562 17.1263L29.5629 17.1244L29.5631 17.1239C29.5632 17.1238 29.5632 17.1237 29.2 16.9561L28.8368 16.7886L28.8366 16.789L28.8359 16.7905L28.8328 16.7971L28.8205 16.8236L28.7717 16.928C28.7286 17.0197 28.6648 17.1545 28.5823 17.3264C28.4174 17.6701 28.178 18.1616 27.8804 18.7516C27.2848 19.9322 26.4579 21.5043 25.5306 23.0747C24.6014 24.6481 23.5795 26.2059 22.5951 27.3655C22.1808 27.8536 21.7804 28.2623 21.4037 28.5703C21.6096 28.1264 21.8205 27.5892 22.0328 26.9896C22.6217 25.3261 23.2429 23.1171 23.8082 20.9191C24.3741 18.7187 24.8866 16.5193 25.2574 14.8707C25.4428 14.0462 25.593 13.3591 25.6967 12.8779C25.7486 12.6373 25.789 12.4482 25.8163 12.3192L25.8475 12.1717L25.8554 12.1338L25.8575 12.1241L25.858 12.1216L25.8581 12.121C25.8581 12.1208 25.8582 12.1208 25.4666 12.039C25.0751 11.9572 25.075 11.9573 25.075 11.9574L25.0749 11.958L25.0744 11.9603L25.0724 11.9697L25.0646 12.007L25.0337 12.1533C25.0065 12.2814 24.9664 12.4696 24.9147 12.7092C24.8114 13.1884 24.6617 13.8733 24.4769 14.6951C24.1071 16.3392 23.5966 18.5301 23.0334 20.7199C22.4696 22.9121 21.8554 25.0934 21.2787 26.7226C21.0274 27.4324 20.7875 28.0251 20.5666 28.4647Z" fill="white"/>
<defs>
<linearGradient id="paint0_linear_2_2" x1="20" y1="4" x2="20" y2="36" gradientUnits="userSpaceOnUse">
<stop stop-color="#6236FF"/>
<stop offset="1" stop-color="#3000DA"/>
</linearGradient>
</defs>
</svg>
