<svg width="17" height="17" viewBox="0 0 17 17" fill="none" xmlns="http://www.w3.org/2000/svg">
<path d="M4.35612 0.893138H13.4179C15.2274 0.893138 16.6943 2.36003 16.6943 4.16953V13.2313C16.6943 15.0408 15.2274 16.5077 13.4179 16.5077H4.35612C2.54661 16.5077 1.07972 15.0408 1.07972 13.2313V4.16953C1.07972 2.36003 2.54661 0.893138 4.35612 0.893138Z" fill="#27282D" stroke="#909090" stroke-width="0.385458"/>
<path d="M8.87612 10.2064L9.40098 9.21924L3.07147 5.85378L2.54661 6.8409L8.87612 10.2064ZM10.3266 7.47833L10.8515 6.49121L4.52199 3.12575L3.99713 4.11286L10.3266 7.47833Z" fill="#AA83E4"/>
<path d="M7.13808 13.463L7.57388 12.6433L8.22597 12.9901C8.52111 13.147 8.76342 13.2349 8.95289 13.2538C9.14237 13.2727 9.31075 13.2062 9.45802 13.0543C9.60929 12.9045 9.77717 12.6561 9.96167 12.3091L10.811 10.7118C11.0337 10.293 11.3684 10.0387 11.8152 9.94885C12.2641 9.85502 12.7949 9.96329 13.4075 10.2737L13.4584 10.1779C12.8606 9.83965 12.4741 9.46017 12.2987 9.0395C12.1255 8.61485 12.1502 8.19314 12.3728 7.77436L13.2222 6.17702C13.4067 5.83004 13.5187 5.55196 13.5583 5.3428C13.6019 5.13575 13.5629 4.95897 13.4412 4.81245C13.3196 4.66593 13.1112 4.51421 12.8161 4.35728L12.164 4.01056L12.5998 3.19095L13.4134 3.62356C13.896 3.88016 14.2451 4.14251 14.4607 4.4106C14.6783 4.67471 14.7697 4.9791 14.7348 5.32377C14.7039 5.67056 14.558 6.08924 14.2972 6.57981L13.5847 7.9199C13.4214 8.227 13.3463 8.52217 13.3594 8.8054C13.3725 9.08863 13.4952 9.35339 13.7275 9.59968C13.9659 9.84409 14.3311 10.0664 14.8232 10.2667L14.2474 11.3495C13.8062 11.0535 13.4166 10.8771 13.0786 10.8201C12.7445 10.7653 12.4575 10.8096 12.2174 10.9531C11.9774 11.0966 11.7747 11.324 11.6093 11.635L10.8967 12.9751C10.6359 13.4657 10.3704 13.8208 10.1002 14.0403C9.83394 14.262 9.53048 14.3564 9.1898 14.3237C8.847 14.2949 8.4343 14.1522 7.95171 13.8956L7.13808 13.463Z" fill="#DEDFDF"/>
</svg>
